<svg xmlns="http://www.w3.org/2000/svg" width="299.165" height="292.758" viewBox="0 0 299.165 292.758"><defs><style>.a{fill:rgba(20,136,204,0.2);}</style></defs><g transform="translate(-0.14 69.732)"><path class="a" d="M102.521-59.182q3.988,0,3.989-3.956c0-2.637-1.33-5.275-3.989-5.275A5.7,5.7,0,0,0,97.2-63.139C97.2-60.5,99.862-59.182,102.521-59.182Z"/><path class="a" d="M121.135-59.182a5.7,5.7,0,0,0,5.319-5.275,5.7,5.7,0,0,0-5.319-5.275c-2.659,1.319-5.318,3.956-5.318,6.594S118.476-59.182,121.135-59.182Z"/><path class="a" d="M139.75-59.182a5.7,5.7,0,0,0,5.319-5.275,5.7,5.7,0,0,0-5.319-5.275,5.7,5.7,0,0,0-5.318,5.275C135.761-60.5,137.091-59.182,139.75-59.182Z"/><path class="a" d="M178.309-59.182a5.7,5.7,0,0,0,5.319-5.275,5.7,5.7,0,0,0-5.319-5.275,5.7,5.7,0,0,0-5.318,5.275C174.32-60.5,175.65-59.182,178.309-59.182Z"/><path class="a" d="M198.254-60.5a2.848,2.848,0,0,0,2.659-2.637,2.848,2.848,0,0,0-2.659-2.638,2.849,2.849,0,0,0-2.66,2.638C194.265-61.82,195.594-60.5,198.254-60.5Z"/><path class="a" d="M216.868-63.139c1.33-1.319,0-1.319,0-1.319Z"/><path class="a" d="M44.017-39.4a5.7,5.7,0,0,0,5.319-5.275,5.7,5.7,0,0,0-5.319-5.275c-2.659,0-3.989,2.637-3.989,5.275S41.358-39.4,44.017-39.4Z"/><path class="a" d="M63.962-43.358a1.817,1.817,0,0,0,0-2.637c-1.33,0-1.33,1.319,0,2.637Z"/><path class="a" d="M82.576-42.039a2.848,2.848,0,0,0,2.659-2.637,2.848,2.848,0,0,0-2.659-2.638,2.848,2.848,0,0,0-2.659,2.638A2.848,2.848,0,0,0,82.576-42.039Z"/><path class="a" d="M102.521-39.4c2.659,0,3.989-2.637,3.989-5.275a5.7,5.7,0,0,0-5.319-5.275,5.7,5.7,0,0,0-5.318,5.275C97.2-42.039,99.862-39.4,102.521-39.4Z"/><path class="a" d="M121.136-43.358c0-1.319,1.329-1.319,0,0Z"/><path class="a" d="M139.75-43.358h0a1.816,1.816,0,0,0,0-2.637Z"/><path class="a" d="M178.309-43.358c1.33,0,1.33,0,1.33-1.319s0-1.319-1.33-1.319-1.329,0-1.329,1.319A1.3,1.3,0,0,0,178.309-43.358Z"/><path class="a" d="M198.254-40.72q3.988,0,3.989-3.956t-3.989-3.956q-3.99,0-3.989,3.956T198.254-40.72Z"/><path class="a" d="M216.868-43.358c1.33-1.319,0-1.319,0-1.319C216.868-46,215.539-44.676,216.868-43.358Z"/><path class="a" d="M6.788-24.9c1.33-1.319,0-1.319,0-1.319-1.33,0-1.33,0,0,1.319Z"/><path class="a" d="M44.018-22.258A2.848,2.848,0,0,0,46.677-24.9c1.33-2.638,0-3.956-2.659-3.956a2.848,2.848,0,0,0-2.659,2.637C41.358-23.577,42.688-22.258,44.018-22.258Z"/><path class="a" d="M63.962-22.258q3.989,0,3.989-3.956c0-1.319-2.659-2.637-3.989-2.637-2.659,0-3.989,1.319-3.989,2.637Q59.973-22.258,63.962-22.258Z"/><path class="a" d="M82.576-22.258A2.848,2.848,0,0,0,85.236-24.9c1.33-2.638,0-3.956-2.659-3.956a2.848,2.848,0,0,0-2.659,2.637C79.917-23.577,81.247-22.258,82.576-22.258Z"/><path class="a" d="M102.521-19.621a6.255,6.255,0,0,0,6.648-6.594,6.255,6.255,0,0,0-6.648-6.594c-3.989,1.319-6.648,3.956-6.648,6.594A6.255,6.255,0,0,0,102.521-19.621Z"/><path class="a" d="M121.135-18.3c3.989,0,7.978-2.638,7.978-7.912s-2.659-7.912-7.978-7.912c-3.988,0-7.977,2.637-7.977,7.912S117.147-18.3,121.135-18.3Z"/><path class="a" d="M139.75-20.939a5.3,5.3,0,0,0,5.319-5.275,5.3,5.3,0,0,0-5.319-5.275,5.3,5.3,0,0,0-5.318,5.275A5.3,5.3,0,0,0,139.75-20.939Z"/><path class="a" d="M159.7-20.939a5.7,5.7,0,0,0,5.318-5.275,5.7,5.7,0,0,0-5.318-5.275,5.7,5.7,0,0,0-5.319,5.275C154.376-22.258,157.035-20.939,159.7-20.939Z"/><path class="a" d="M178.309-23.577c1.33,0,1.33,0,1.33-1.319s0-1.319-1.33-1.319-1.329,0-1.329,1.319Z"/><path class="a" d="M198.254-24.9a1.324,1.324,0,0,0,1.329-1.319,1.324,1.324,0,0,0-1.329-1.319,1.324,1.324,0,0,0-1.33,1.319A1.324,1.324,0,0,0,198.254-24.9Z"/><path class="a" d="M216.868-19.621a6.255,6.255,0,0,0,6.648-6.594,6.255,6.255,0,0,0-6.648-6.594,6.255,6.255,0,0,0-6.648,6.594A6.255,6.255,0,0,0,216.868-19.621Z"/><path class="a" d="M235.483-24.9h0c1.33-1.319,0-1.319,0-1.319Z"/><path class="a" d="M25.4-5.115c1.33,0,1.33,0,1.33-1.319s0-1.319-1.33-1.319a1.3,1.3,0,0,0-1.33,1.319C24.073-5.115,24.073-5.115,25.4-5.115Z"/><path class="a" d="M44.017-2.477q3.989,0,3.989-3.956t-3.989-3.956q-3.989,0-3.989,3.956C41.358-5.114,42.688-2.477,44.017-2.477Z"/><path class="a" d="M63.962-1.158A5.7,5.7,0,0,0,69.28-6.433a5.7,5.7,0,0,0-5.318-5.275,5.7,5.7,0,0,0-5.319,5.275C58.643-3.8,59.973-1.158,63.962-1.158Z"/><path class="a" d="M82.576-1.158a5.7,5.7,0,0,0,5.318-5.275,5.7,5.7,0,0,0-5.318-5.275,5.7,5.7,0,0,0-5.318,5.275A5.7,5.7,0,0,0,82.576-1.158Z"/><path class="a" d="M102.521-2.477c1.329,0,3.989-1.319,3.989-3.956s-2.66-3.956-3.989-3.956-3.989,1.319-3.989,3.956S99.862-2.477,102.521-2.477Z"/><path class="a" d="M121.136.161a6.256,6.256,0,0,0,6.648-6.594,6.256,6.256,0,0,0-6.648-6.594,6.256,6.256,0,0,0-6.649,6.594A6.256,6.256,0,0,0,121.136.161Z"/><path class="a" d="M139.75.161A6.255,6.255,0,0,0,146.4-6.433a6.255,6.255,0,0,0-6.648-6.594A6.255,6.255,0,0,0,133.1-6.433C133.1-2.477,137.091.161,139.75.161Z"/><path class="a" d="M159.7-1.158a5.7,5.7,0,0,0,5.318-5.275,5.7,5.7,0,0,0-5.318-5.275,5.7,5.7,0,0,0-5.319,5.275A5.7,5.7,0,0,0,159.7-1.158Z"/><path class="a" d="M178.309.161a6.255,6.255,0,0,0,6.648-6.594,6.255,6.255,0,0,0-6.648-6.594,6.255,6.255,0,0,0-6.648,6.594C172.991-3.8,175.65.161,178.309.161Z"/><path class="a" d="M198.253-2.477q3.99,0,3.989-3.956t-3.989-3.956q-3.989,0-3.988,3.956C192.935-3.8,195.594-2.477,198.253-2.477Z"/><path class="a" d="M216.868-3.8a2.849,2.849,0,0,0,2.66-2.637,2.849,2.849,0,0,0-2.66-2.637,2.848,2.848,0,0,0-2.659,2.637A2.848,2.848,0,0,0,216.868-3.8Z"/><path class="a" d="M255.427-5.114c1.33-1.319,0-1.319,0-1.319C255.427-7.752,254.1-6.433,255.427-5.114Z"/><path class="a" d="M6.788,13.348c1.33-1.319,0-1.319,0-1.319-1.33,0-1.33,0,0,1.319Z"/><path class="a" d="M25.4,14.667c1.33,0,1.33-1.319,1.33-2.637s0-1.319-1.33-1.319-1.33,0-1.33,1.319S24.073,14.667,25.4,14.667Z"/><path class="a" d="M44.018,15.985a2.848,2.848,0,0,0,2.659-2.637,2.848,2.848,0,0,0-2.659-2.637c-1.33-1.319-2.659,0-2.659,1.319C41.358,14.667,42.688,15.985,44.018,15.985Z"/><path class="a" d="M63.962,13.348a1.319,1.319,0,1,0-1.33-1.319C62.632,13.348,62.632,13.348,63.962,13.348Z"/><path class="a" d="M82.576,15.985c1.33,0,3.989-1.319,3.989-3.956a4.226,4.226,0,0,0-3.989-3.956c-1.33,1.319-2.659,2.637-2.659,3.956C79.917,14.667,81.247,15.985,82.576,15.985Z"/><path class="a" d="M102.521,18.623a6.255,6.255,0,0,0,6.648-6.594,6.648,6.648,0,0,0-13.3,0A6.256,6.256,0,0,0,102.521,18.623Z"/><path class="a" d="M121.136,18.623a6.256,6.256,0,0,0,6.648-6.594,6.649,6.649,0,0,0-13.3,0A6.256,6.256,0,0,0,121.136,18.623Z"/><path class="a" d="M139.75,18.623a6.255,6.255,0,0,0,6.648-6.594,6.648,6.648,0,0,0-13.3,0C134.432,15.985,137.091,18.623,139.75,18.623Z"/><path class="a" d="M159.7,18.623a5.7,5.7,0,0,0,5.318-5.275,5.319,5.319,0,0,0-10.637,0C154.376,15.985,155.706,18.623,159.7,18.623Z"/><path class="a" d="M178.309,17.3a5.7,5.7,0,0,0,5.319-5.275,5.319,5.319,0,0,0-10.637,0A5.7,5.7,0,0,0,178.309,17.3Z"/><path class="a" d="M198.254,14.667c1.329,0,1.329-1.319,1.329-2.637s0-1.319-1.329-1.319a2.848,2.848,0,0,0-2.66,2.637A4.655,4.655,0,0,0,198.254,14.667Z"/><path class="a" d="M216.868,17.3a5.275,5.275,0,1,0-5.318-5.275A5.3,5.3,0,0,0,216.868,17.3Z"/><path class="a" d="M235.483,13.348c1.33,0,1.33,0,1.33-1.319s0-1.319-1.33-1.319-1.33,0-1.33,1.319A1.3,1.3,0,0,0,235.483,13.348Z"/><path class="a" d="M255.427,18.623a6.255,6.255,0,0,0,6.648-6.594,6.648,6.648,0,0,0-13.3,0A6.255,6.255,0,0,0,255.427,18.623Z"/><path class="a" d="M274.042,13.348h0c1.33-1.319,0-1.319,0-1.319Z"/><path class="a" d="M6.788,33.129a2.848,2.848,0,0,0,2.659-2.637c0-1.319-1.33-1.319-2.659-1.319A2.848,2.848,0,0,0,4.129,31.81C4.129,33.129,5.458,33.129,6.788,33.129Z"/><path class="a" d="M25.4,33.129a2.848,2.848,0,0,0,2.659-2.637c0-1.319-1.33-1.319-2.659-1.319a2.848,2.848,0,0,0-2.659,2.637C22.743,33.129,24.073,33.129,25.4,33.129Z"/><path class="a" d="M44.017,35.766a5.7,5.7,0,0,0,5.319-5.275,5.7,5.7,0,0,0-5.319-5.275,7.244,7.244,0,0,0-3.989,6.594Q40.028,35.766,44.017,35.766Z"/><path class="a" d="M63.962,33.129a2.848,2.848,0,0,0,2.659-2.637c0-1.319-1.33-1.319-2.659-1.319A2.848,2.848,0,0,0,61.3,31.81C61.3,33.129,62.632,33.129,63.962,33.129Z"/><path class="a" d="M82.576,34.447a2.848,2.848,0,0,0,2.659-2.637c0-1.319-1.33-3.956-2.659-3.956s-2.659,1.319-2.659,3.956S81.247,34.447,82.576,34.447Z"/><path class="a" d="M102.521,35.766c1.329,0,3.989-2.637,3.989-3.956q0-3.956-3.989-3.956T98.532,31.81A4.226,4.226,0,0,0,102.521,35.766Z"/><path class="a" d="M121.135,37.085a5.275,5.275,0,1,0-5.318-5.275A5.3,5.3,0,0,0,121.135,37.085Z"/><path class="a" d="M139.75,37.085a5.7,5.7,0,0,0,5.319-5.275,5.319,5.319,0,0,0-10.637,0A5.7,5.7,0,0,0,139.75,37.085Z"/><path class="a" d="M159.7,35.766q3.988,0,3.988-3.956T159.7,27.854q-3.99,0-3.989,3.956A4.226,4.226,0,0,0,159.7,35.766Z"/><path class="a" d="M178.309,35.766q3.99,0,3.989-3.956t-3.989-3.956q-3.989,0-3.989,3.956C174.32,33.129,176.98,35.766,178.309,35.766Z"/><path class="a" d="M198.254,34.447a2.638,2.638,0,1,0-2.66-2.637A2.649,2.649,0,0,0,198.254,34.447Z"/><path class="a" d="M216.868,35.766q3.988,0,3.989-3.956t-3.989-3.956q-3.988,0-3.989,3.956T216.868,35.766Z"/><path class="a" d="M235.483,34.447a2.848,2.848,0,0,0,2.659-2.637,2.659,2.659,0,0,0-5.318,0A2.848,2.848,0,0,0,235.483,34.447Z"/><path class="a" d="M255.427,35.766q3.99,0,3.989-3.956t-3.989-3.956q-3.988,0-3.989,3.956T255.427,35.766Z"/><path class="a" d="M274.042,34.447a2.638,2.638,0,1,0-2.659-2.637A2.648,2.648,0,0,0,274.042,34.447Z"/><path class="a" d="M6.788,55.547a5.7,5.7,0,0,0,5.318-5.275A5.7,5.7,0,0,0,6.788,45C2.8,45,.14,47.635.14,50.272S2.8,55.547,6.788,55.547Z"/><path class="a" d="M25.4,55.547a5.7,5.7,0,0,0,5.319-5.275A5.7,5.7,0,0,0,25.4,45a5.7,5.7,0,0,0-5.319,5.275A5.7,5.7,0,0,0,25.4,55.547Z"/><path class="a" d="M44.018,54.229q3.989,0,3.989-3.956t-3.989-3.956c-1.33,0-2.659,1.319-2.659,3.956S42.688,54.229,44.018,54.229Z"/><path class="a" d="M63.962,52.91A2.638,2.638,0,1,0,61.3,50.272,2.848,2.848,0,0,0,63.962,52.91Z"/><path class="a" d="M82.576,52.91a2.638,2.638,0,1,0-2.659-2.638A2.848,2.848,0,0,0,82.576,52.91Z"/><path class="a" d="M102.521,52.91a2.638,2.638,0,1,0-2.66-2.638A2.649,2.649,0,0,0,102.521,52.91Z"/><path class="a" d="M121.136,54.229q3.988,0,3.988-3.956t-3.988-3.956q-3.99,0-3.989,3.956T121.136,54.229Z"/><path class="a" d="M139.75,54.229q3.988,0,3.989-3.956t-3.989-3.956q-3.988,0-3.989,3.956C135.761,52.91,138.421,54.229,139.75,54.229Z"/><path class="a" d="M159.7,55.547a5.7,5.7,0,0,0,5.318-5.275,5.319,5.319,0,0,0-10.637,0C153.046,54.229,155.706,55.547,159.7,55.547Z"/><path class="a" d="M178.309,55.547a5.7,5.7,0,0,0,5.319-5.275,5.319,5.319,0,0,0-10.637,0A5.7,5.7,0,0,0,178.309,55.547Z"/><path class="a" d="M198.254,55.547a5.7,5.7,0,0,0,5.318-5.275,5.319,5.319,0,0,0-10.637,0A5.7,5.7,0,0,0,198.254,55.547Z"/><path class="a" d="M216.868,54.229q3.988,0,3.989-3.956t-3.989-3.956q-3.988,0-3.989,3.956T216.868,54.229Z"/><path class="a" d="M235.483,51.591c1.33-1.319,1.33,0,0,0,1.33-1.319,0-1.319,0-1.319Z"/><path class="a" d="M255.427,51.591c1.33,0,1.33,0,1.33-1.319s0-1.319-1.33-1.319-1.329,0-1.329,1.319S254.1,51.591,255.427,51.591Z"/><path class="a" d="M274.042,52.91a2.638,2.638,0,1,0-2.659-2.638A2.848,2.848,0,0,0,274.042,52.91Z"/><path class="a" d="M293.986,55.547a5.7,5.7,0,0,0,5.319-5.275,5.319,5.319,0,0,0-10.637,0A5.7,5.7,0,0,0,293.986,55.547Z"/><path class="a" d="M6.788,75.328a6.255,6.255,0,0,0,6.648-6.594c0-2.637-3.989-5.275-6.648-5.275C2.8,63.459.14,66.1.14,68.734A6.255,6.255,0,0,0,6.788,75.328Z"/><path class="a" d="M25.4,71.372a2.848,2.848,0,0,0,2.659-2.638c0-1.319-1.33-1.319-2.659-1.319a2.848,2.848,0,0,0-2.659,2.637C22.743,71.372,24.073,71.372,25.4,71.372Z"/><path class="a" d="M44.018,72.691a2.638,2.638,0,1,0-2.659-2.638A2.848,2.848,0,0,0,44.018,72.691Z"/><path class="a" d="M63.962,75.328a6.255,6.255,0,0,0,6.648-6.594,6.255,6.255,0,0,0-6.648-6.594,6.255,6.255,0,0,0-6.648,6.594A6.255,6.255,0,0,0,63.962,75.328Z"/><path class="a" d="M82.576,74.009a5.7,5.7,0,0,0,5.318-5.275,5.319,5.319,0,0,0-10.637,0A5.7,5.7,0,0,0,82.576,74.009Z"/><path class="a" d="M102.521,74.009a5.7,5.7,0,0,0,5.318-5.275,5.319,5.319,0,0,0-10.637,0C97.2,71.372,98.532,74.009,102.521,74.009Z"/><path class="a" d="M121.135,75.328a5.7,5.7,0,0,0,5.319-5.275c0-2.637-2.659-6.594-5.319-6.594a5.7,5.7,0,0,0-5.318,5.275C115.817,71.372,118.476,75.328,121.135,75.328Z"/><path class="a" d="M139.75,72.691a3.956,3.956,0,1,0-3.989-3.956A3.973,3.973,0,0,0,139.75,72.691Z"/><path class="a" d="M159.7,74.009q3.988,0,3.988-3.956T159.7,66.1q-3.99,0-3.989,3.956T159.7,74.009Z"/><path class="a" d="M178.309,74.009a5.7,5.7,0,0,0,5.319-5.275,5.319,5.319,0,0,0-10.637,0C172.991,72.691,175.65,74.009,178.309,74.009Z"/><path class="a" d="M198.254,74.009a5.7,5.7,0,0,0,5.318-5.275,5.319,5.319,0,0,0-10.637,0A5.7,5.7,0,0,0,198.254,74.009Z"/><path class="a" d="M216.868,74.009a5.7,5.7,0,0,0,5.319-5.275,5.319,5.319,0,0,0-10.637,0C211.55,72.691,214.209,74.009,216.868,74.009Z"/><path class="a" d="M235.483,75.328a5.7,5.7,0,0,0,5.318-5.275,5.319,5.319,0,0,0-10.637,0A5.7,5.7,0,0,0,235.483,75.328Z"/><path class="a" d="M255.427,70.053h0C254.1,68.734,255.427,68.734,255.427,70.053Z"/><path class="a" d="M274.042,70.053a1.319,1.319,0,1,0-1.33-1.319A1.325,1.325,0,0,0,274.042,70.053Z"/><path class="a" d="M25.4,89.834c1.33,0,1.33,0,1.33-1.319a1.33,1.33,0,0,0-2.659,0C24.073,89.834,24.073,89.834,25.4,89.834Z"/><path class="a" d="M44.017,93.79a5.275,5.275,0,1,0,0-10.55,5.275,5.275,0,1,0,0,10.55Z"/><path class="a" d="M63.962,93.79a5.275,5.275,0,1,0,0-10.55,5.7,5.7,0,0,0-5.319,5.275C58.643,91.153,59.973,93.79,63.962,93.79Z"/><path class="a" d="M82.576,92.472q3.989,0,3.989-3.956t-3.989-3.956q-3.989,0-3.989,3.956C78.588,91.153,81.247,92.472,82.576,92.472Z"/><path class="a" d="M102.521,93.79A5.275,5.275,0,1,0,97.2,88.516,5.7,5.7,0,0,0,102.521,93.79Z"/><path class="a" d="M121.136,92.472q3.988,0,3.988-3.956t-3.988-3.956q-3.99,0-3.989,3.956T121.136,92.472Z"/><path class="a" d="M139.75,92.472q3.988,0,3.989-3.956t-3.989-3.956q-3.988,0-3.989,3.956C137.091,89.834,138.421,92.472,139.75,92.472Z"/><path class="a" d="M159.7,93.79a5.275,5.275,0,1,0-5.319-5.275A5.7,5.7,0,0,0,159.7,93.79Z"/><path class="a" d="M178.309,92.472a4.226,4.226,0,0,0,3.989-3.956c0-2.637-2.659-3.956-3.989-3.956a4.226,4.226,0,0,0-3.989,3.956Q174.32,92.472,178.309,92.472Z"/><path class="a" d="M198.254,93.79a5.275,5.275,0,1,0-5.319-5.275C192.935,91.153,194.265,93.79,198.254,93.79Z"/><path class="a" d="M216.868,95.109a6.594,6.594,0,1,0-6.648-6.594A6.255,6.255,0,0,0,216.868,95.109Z"/><path class="a" d="M235.483,95.109a6.594,6.594,0,1,0-6.648-6.594C230.164,92.472,232.824,95.109,235.483,95.109Z"/><path class="a" d="M255.427,89.834c1.33-1.319,0-1.319,0-1.319-1.329-1.319-1.329-1.319,0,1.319C254.1,88.516,254.1,89.834,255.427,89.834Z"/><path class="a" d="M6.788,108.3c1.33-1.318,0-1.318,0-1.318-1.33,0-1.33,0,0,1.318Z"/><path class="a" d="M25.4,113.571a6.594,6.594,0,1,0,0-13.187,6.594,6.594,0,1,0,0,13.187Z"/><path class="a" d="M44.017,113.571a5.275,5.275,0,1,0,0-10.549,5.275,5.275,0,1,0,0,10.549Z"/><path class="a" d="M63.962,112.253a5.275,5.275,0,1,0,0-10.55,5.275,5.275,0,1,0,0,10.55Z"/><path class="a" d="M82.576,112.253a5.275,5.275,0,1,0-5.318-5.275A5.7,5.7,0,0,0,82.576,112.253Z"/><path class="a" d="M102.521,113.571a6.594,6.594,0,1,0-6.648-6.593A6.255,6.255,0,0,0,102.521,113.571Z"/><path class="a" d="M121.135,112.253a5.7,5.7,0,0,0,5.319-5.275c0-2.638-2.659-3.956-5.319-3.956a5.7,5.7,0,0,0-5.318,5.274C115.817,110.934,118.476,112.253,121.135,112.253Z"/><path class="a" d="M139.75,110.934q3.988,0,3.989-3.956t-3.989-3.956q-3.988,0-3.989,3.956C135.761,109.615,138.421,110.934,139.75,110.934Z"/><path class="a" d="M159.7,112.253a5.7,5.7,0,0,0,5.318-5.275c0-2.638-2.659-3.956-5.318-3.956a5.7,5.7,0,0,0-5.319,5.274C154.376,110.934,157.035,112.253,159.7,112.253Z"/><path class="a" d="M178.309,112.253a5.275,5.275,0,1,0-5.318-5.275A5.3,5.3,0,0,0,178.309,112.253Z"/><path class="a" d="M198.254,113.571a6.594,6.594,0,1,0-6.649-6.593A6.255,6.255,0,0,0,198.254,113.571Z"/><path class="a" d="M216.868,113.571a6.594,6.594,0,1,0-6.648-6.593A6.621,6.621,0,0,0,216.868,113.571Z"/><path class="a" d="M235.483,113.571a5.275,5.275,0,1,0-5.319-5.275A5.7,5.7,0,0,0,235.483,113.571Z"/><path class="a" d="M255.427,112.253a5.275,5.275,0,1,0-5.318-5.275A5.7,5.7,0,0,0,255.427,112.253Z"/><path class="a" d="M274.042,112.253a5.275,5.275,0,1,0-5.319-5.275A5.3,5.3,0,0,0,274.042,112.253Z"/><path class="a" d="M6.788,132.034a5.275,5.275,0,1,0,0-10.55,5.7,5.7,0,0,0-5.318,5.275C.14,129.4,2.8,132.034,6.788,132.034Z"/><path class="a" d="M25.4,126.759c1.33-1.319,0-1.319,0-1.319Z"/><path class="a" d="M44.017,132.034a5.275,5.275,0,1,0,0-10.55,5.275,5.275,0,1,0,0,10.55Z"/><path class="a" d="M63.962,132.034a5.275,5.275,0,1,0,0-10.55,5.275,5.275,0,1,0,0,10.55Z"/><path class="a" d="M82.576,133.352a6.594,6.594,0,1,0-6.648-6.593C75.928,129.4,78.588,133.352,82.576,133.352Z"/><path class="a" d="M102.521,132.034a5.275,5.275,0,1,0-5.319-5.275C97.2,129.4,98.532,132.034,102.521,132.034Z"/><path class="a" d="M121.136,130.715q3.988,0,3.988-3.956t-3.988-3.957q-3.99,0-3.989,3.957A4.226,4.226,0,0,0,121.136,130.715Z"/><path class="a" d="M139.75,130.715a4.227,4.227,0,0,0,3.989-3.956c0-2.638-2.659-3.957-3.989-3.957a4.227,4.227,0,0,0-3.989,3.957C135.761,129.4,138.421,130.715,139.75,130.715Z"/><path class="a" d="M159.7,129.4a2.638,2.638,0,1,0-2.66-2.637A2.849,2.849,0,0,0,159.7,129.4Z"/><path class="a" d="M178.309,128.077a2.638,2.638,0,1,0-2.659-2.637C176.98,128.077,176.98,128.077,178.309,128.077Z"/><path class="a" d="M198.254,132.034a6.594,6.594,0,1,0-6.649-6.594A6.256,6.256,0,0,0,198.254,132.034Z"/><path class="a" d="M216.868,130.715q3.988,0,3.989-3.956t-3.989-3.957q-3.988,0-3.989,3.957A4.227,4.227,0,0,0,216.868,130.715Z"/><path class="a" d="M235.483,133.352a6.594,6.594,0,1,0-6.648-6.593C230.164,129.4,232.824,133.352,235.483,133.352Z"/><path class="a" d="M255.427,126.759c1.33-1.319,0-1.319,0-1.319S254.1,125.44,255.427,126.759Z"/><path class="a" d="M6.788,146.54a1.319,1.319,0,1,0,0-2.638,1.3,1.3,0,0,0-1.33,1.319C4.129,146.54,5.458,146.54,6.788,146.54Z"/><path class="a" d="M25.4,146.54c1.33,0,1.33,0,1.33-1.319a1.33,1.33,0,0,0-2.659,0C24.073,146.54,24.073,146.54,25.4,146.54Z"/><path class="a" d="M44.018,147.858a2.637,2.637,0,1,0-2.659-2.637Z"/><path class="a" d="M63.962,151.815a6.594,6.594,0,1,0,0-13.188,6.594,6.594,0,1,0,0,13.188Z"/><path class="a" d="M82.576,151.815a6.594,6.594,0,1,0-6.648-6.594C77.258,149.177,79.917,151.815,82.576,151.815Z"/><path class="a" d="M102.521,150.5a5.275,5.275,0,1,0-5.319-5.275A5.3,5.3,0,0,0,102.521,150.5Z"/><path class="a" d="M121.135,150.5a5.275,5.275,0,1,0-5.318-5.275A5.7,5.7,0,0,0,121.135,150.5Z"/><path class="a" d="M139.75,149.177q3.988,0,3.989-3.956t-3.989-3.956q-3.988,0-3.989,3.956C135.761,147.858,138.421,149.177,139.75,149.177Z"/><path class="a" d="M159.7,147.858a2.637,2.637,0,1,0-2.66-2.637A2.848,2.848,0,0,0,159.7,147.858Z"/><path class="a" d="M178.309,149.177a4.225,4.225,0,0,0,3.989-3.956c0-1.319-2.659-3.956-3.989-3.956s-3.989,2.637-3.989,3.956A4.226,4.226,0,0,0,178.309,149.177Z"/><path class="a" d="M198.254,150.5a5.275,5.275,0,1,0-5.319-5.275A5.7,5.7,0,0,0,198.254,150.5Z"/><path class="a" d="M216.868,150.5a5.275,5.275,0,1,0-5.318-5.275A5.7,5.7,0,0,0,216.868,150.5Z"/><path class="a" d="M235.483,146.54c1.33-1.319,1.33,0,0,0,1.33-1.319,0-1.319,0-1.319Z"/><path class="a" d="M255.427,150.5a5.275,5.275,0,1,0-5.318-5.275A5.3,5.3,0,0,0,255.427,150.5Z"/><path class="a" d="M44.018,165h0c1.33-1.319,0-1.319,0-1.319Z"/><path class="a" d="M63.962,170.277a6.594,6.594,0,1,0,0-13.187,6.594,6.594,0,1,0,0,13.187Z"/><path class="a" d="M82.576,170.277A5.275,5.275,0,1,0,77.258,165,5.7,5.7,0,0,0,82.576,170.277Z"/><path class="a" d="M102.521,168.958a5.275,5.275,0,1,0-5.319-5.275C97.2,167.639,99.862,168.958,102.521,168.958Z"/><path class="a" d="M121.135,166.321c1.33,0,1.33,0,1.33-1.319s0-1.319-1.33-1.319-1.329,0-1.329,1.319Z"/><path class="a" d="M139.75,167.639q3.988,0,3.989-3.956t-3.989-3.956q-3.988,0-3.989,3.956Q137.756,167.64,139.75,167.639Z"/><path class="a" d="M159.7,166.321a2.638,2.638,0,1,0-2.66-2.638A2.849,2.849,0,0,0,159.7,166.321Z"/><path class="a" d="M178.309,168.958q3.99,0,3.989-3.956t-3.989-3.956q-3.989,0-3.989,3.956A4.226,4.226,0,0,0,178.309,168.958Z"/><path class="a" d="M198.254,165c1.329-1.319,1.329-2.638,0-2.638-1.33,1.319-1.33,1.319,0,2.638Z"/><path class="a" d="M216.868,167.639q3.988,0,3.989-3.956t-3.989-3.956q-3.988,0-3.989,3.956T216.868,167.639Z"/><path class="a" d="M235.483,167.639q3.988,0,3.989-3.956t-3.989-3.956q-3.988,0-3.989,3.956Q233.489,167.64,235.483,167.639Z"/><path class="a" d="M44.017,184.783a1.3,1.3,0,0,0,1.33-1.319c1.33-1.319,0-1.319-1.33-1.319a1.319,1.319,0,1,0,0,2.638Z"/><path class="a" d="M63.962,184.783a1.817,1.817,0,0,0,0-2.638c-1.33,0-1.33,0,0,2.638C62.632,183.464,62.632,184.783,63.962,184.783Z"/><path class="a" d="M82.576,187.42q3.989,0,3.989-3.956t-3.989-3.956q-3.989,0-3.989,3.956C78.588,184.783,81.247,187.42,82.576,187.42Z"/><path class="a" d="M102.521,190.058a6.594,6.594,0,1,0-6.648-6.594A6.621,6.621,0,0,0,102.521,190.058Z"/><path class="a" d="M121.135,186.1a2.638,2.638,0,1,0-2.659-2.638A2.649,2.649,0,0,0,121.135,186.1Z"/><path class="a" d="M139.75,184.783a1.319,1.319,0,1,0-1.329-1.319A1.325,1.325,0,0,0,139.75,184.783Z"/><path class="a" d="M159.7,188.739a5.275,5.275,0,1,0-5.319-5.275A5.7,5.7,0,0,0,159.7,188.739Z"/><path class="a" d="M178.309,186.1a2.638,2.638,0,1,0-2.659-2.638A2.848,2.848,0,0,0,178.309,186.1Z"/><path class="a" d="M198.254,186.1a2.638,2.638,0,1,0-2.66-2.638C194.265,184.783,195.594,186.1,198.254,186.1Z"/><path class="a" d="M216.868,186.1a2.638,2.638,0,1,0-2.659-2.638A2.849,2.849,0,0,0,216.868,186.1Z"/><path class="a" d="M235.483,188.739a5.275,5.275,0,1,0-5.319-5.275A5.3,5.3,0,0,0,235.483,188.739Z"/><path class="a" d="M82.576,203.245h0c1.33-1.319,0-1.319,0-1.319Z"/><path class="a" d="M102.521,204.564a2.638,2.638,0,1,0-2.66-2.638A2.849,2.849,0,0,0,102.521,204.564Z"/><path class="a" d="M121.136,208.52a6.594,6.594,0,1,0-6.649-6.594A6.256,6.256,0,0,0,121.136,208.52Z"/><path class="a" d="M139.75,208.52a6.594,6.594,0,1,0-6.648-6.594C134.432,205.883,137.091,208.52,139.75,208.52Z"/><path class="a" d="M159.7,204.564a2.638,2.638,0,1,0-2.66-2.638A2.849,2.849,0,0,0,159.7,204.564Z"/><path class="a" d="M178.309,204.564a1.319,1.319,0,1,0-1.329-1.319Z"/><path class="a" d="M198.254,204.564a1.319,1.319,0,1,0-1.33-1.319C195.594,203.245,196.924,204.564,198.254,204.564Z"/><path class="a" d="M216.868,205.883q3.988,0,3.989-3.957t-3.989-3.956q-3.988,0-3.989,3.956T216.868,205.883Z"/><path class="a" d="M102.521,221.707c-1.33,0,0-1.318,0,0Z"/><path class="a" d="M178.309,223.026a2.638,2.638,0,1,0-2.659-2.637C175.65,223.026,176.98,223.026,178.309,223.026Z"/><path class="a" d="M198.254,221.707c-1.33,0,0-1.318,0,0Z"/><path class="a" d="M216.868,221.707c1.33-1.318,0-1.318,0-1.318Z"/></g></svg>